HIERARCHY
ROOT Hips
{
  OFFSET 7.06542 74.6625 429.16
  CHANNELS 6 Xposition Yposition Zposition Zrotation Xrotation Yrotation
  JOINT Spine
  {
    OFFSET 0 4.73261 7.09891
    CHANNELS 3 Zrotation Xrotation Yrotation
    JOINT Spine1
    {
      OFFSET 0 0 9.46522
      CHANNELS 3 Zrotation Xrotation Yrotation
      JOINT Spine2
      {
        OFFSET 0 0 9.46522
        CHANNELS 3 Zrotation Xrotation Yrotation
        JOINT Spine3
        {
          OFFSET 0 0 9.46522
          CHANNELS 3 Zrotation Xrotation Yrotation
          JOINT Neck
          {
            OFFSET 0 -3.54946 24.8462
            CHANNELS 3 Zrotation Xrotation Yrotation
            JOINT Head
            {
              OFFSET 0 0 13.0147
              CHANNELS 3 Zrotation Xrotation Yrotation
              End Site
              {
                OFFSET 0 0 15.3218
              }
            }
          }
          JOINT RightShoulder
          {
            OFFSET -3.19949 -5.33248 17.2772
            CHANNELS 3 Zrotation Xrotation Yrotation
            JOINT RightArm
            {
              OFFSET 15.8908 0 0
              CHANNELS 3 Zrotation Xrotation Yrotation
              JOINT RightForeArm
              {
                OFFSET 29.5436 0 0
                CHANNELS 3 Zrotation Xrotation Yrotation
                JOINT RightHand
                {
                  OFFSET 23.2652 0 0
                  CHANNELS 3 Zrotation Xrotation Yrotation
                  JOINT RightHandEnd
                  {
                    OFFSET 6.96115 0 0
                    CHANNELS 3 Zrotation Xrotation Yrotation
                    End Site
                    {
                      OFFSET 6.96115 0 0
                    }
                  }
                  JOINT RightHandThumb1
                  {
                    OFFSET 2.78446 -4.64077 1.85631
                    CHANNELS 3 Zrotation Xrotation Yrotation
                    JOINT RightHandThumb2
                    {
                      OFFSET 6.96115 0 0
                      CHANNELS 3 Zrotation Xrotation Yrotation
                      End Site
                      {
                        OFFSET 0 0 0
                      }
                    }
                  }
                }
              }
            }
          }
          JOINT LeftShoulder
          {
            OFFSET 3.19949 -5.33248 17.2772
            CHANNELS 3 Zrotation Xrotation Yrotation
            JOINT LeftArm
            {
              OFFSET 15.8908 0 0
              CHANNELS 3 Zrotation Xrotation Yrotation
              JOINT LeftForeArm
              {
                OFFSET 29.5436 0 0
                CHANNELS 3 Zrotation Xrotation Yrotation
                JOINT LeftHand
                {
                  OFFSET 23.2652 0 0
                  CHANNELS 3 Zrotation Xrotation Yrotation
                  JOINT LeftHandEnd
                  {
                    OFFSET 6.96115 0 0
                    CHANNELS 3 Zrotation Xrotation Yrotation
                    End Site
                    {
                      OFFSET 6.96115 0 0
                    }
                  }
                  JOINT LeftHandThumb1
                  {
                    OFFSET 2.78446 -4.64077 -1.85631
                    CHANNELS 3 Zrotation Xrotation Yrotation
                    JOINT LeftHandThumb2
                    {
                      OFFSET 6.96115 0 0
                      CHANNELS 3 Zrotation Xrotation Yrotation
                      End Site
                      {
                        OFFSET 0 0 0
                      }
                    }
                  }
                }
              }
            }
          }
        }
      }
    }
  }
  JOINT RightUpLeg
  {
    OFFSET -9.49182 0 -2.77289
    CHANNELS 3 Zrotation Xrotation Yrotation
    JOINT RightLeg
    {
      OFFSET 41.2118 0 0
      CHANNELS 3 Zrotation Xrotation Yrotation
      JOINT RightFoot
      {
        OFFSET 45.6091 0 0
        CHANNELS 3 Zrotation Xrotation Yrotation
        JOINT RightToeBase
        {
          OFFSET 17.0969 0 0
          CHANNELS 3 Zrotation Xrotation Yrotation
          End Site
          {
            OFFSET 7.67878 0 0
          }
        }
      }
    }
  }
  JOINT LeftUpLeg
  {
    OFFSET 9.49182 0 -2.77289
    CHANNELS 3 Zrotation Xrotation Yrotation
    JOINT LeftLeg
    {
      OFFSET 41.2118 0 0
      CHANNELS 3 Zrotation Xrotation Yrotation
      JOINT LeftFoot
      {
        OFFSET 45.6091 0 0
        CHANNELS 3 Zrotation Xrotation Yrotation
        JOINT LeftToeBase
        {
          OFFSET 17.0969 0 0
          CHANNELS 3 Zrotation Xrotation Yrotation
          End Site
          {
            OFFSET 7.67878 0 0
          }
        }
      }
    }
  }
}
MOTION
Frames:	9
Frame Time:	0.00833333
0.00874025 77.3258 -0.0997013 -176.795 -11.3493 177.414 -0.727994 -16.0714 -0.275322 -0.00120732 18.2821 2.55876 -8.61502 -59.9087 -14.9417 0.0898224 6.75893 -0.72501 8.25621 -16.9132 24.0954 -103.761 -62.2512 -105.84 6.79525 -20.9713 -143.022 -73.9744 39.5909 98.6216 -4.72812 3.55268e-12 3.73143e-11 -20.2159 50.3595 111.017 -5.113e-08 -90 -5.113e-08 165 10 -180 5.67344e-10 3.28496e-09 8.66695e-10 0.139629 -23.2289 -22.0138 -51.8543 -35.9615 -88.8743 -2.01511 -3.70535e-12 2.24189e-11 -20.0512 -49.9596 -90.9859 5.97139e-08 90 -5.97139e-08 165 10 -180 -5.075e-10 5.6021e-09 1.13168e-09 -13.63 24.2846 120.049 58.8299 -0.0112078 -1.68092e-12 -78.1594 -0.661694 -2.78789 -19.7518 4.56098e-11 1.55593e-11 13.9586 30.0894 62.3197 46.2062 -0.0374269 1.13983e-12 -69.0937 -0.786767 22.9932 -22.3039 -7.56896e-10 -1.2754e-11 
-0.00234097 77.3326 -0.0970048 -176.8 -11.3307 177.419 -0.729507 -16.0888 -0.325342 -6.21168e-05 17.9118 2.36767 -7.92262 -59.4316 -14.1309 0.0755322 6.64127 -0.563091 7.42963 -15.3872 22.2244 -114.208 -63.0595 -115.971 6.58819 -21.034 -143.676 -74.1059 39.1731 98.7682 -4.64454 3.09468e-12 3.36057e-11 -20.248 50.4014 110.997 -2.91105e-08 -90 -2.91105e-08 165 10 -180 4.58197e-10 3.16801e-09 7.73385e-10 0.0457233 -23.1986 -22.0171 -51.9498 -35.708 -89.103 -1.89312 -2.69711e-12 1.74286e-11 -20.0018 -50.0566 -91.03 1.19428e-08 90 -1.19428e-08 165 10 -180 -4.18208e-10 4.23701e-09 8.26117e-10 -13.6518 24.2985 120.056 58.8206 -0.011233 3.55315e-09 -78.1521 -0.671299 -2.80096 -19.7556 6.52482e-11 1.78811e-11 13.9481 30.1147 62.3151 46.1927 -0.0374891 2.33866e-08 -69.0876 -0.802966 22.9959 -22.3004 -6.08439e-10 -1.25306e-11 
-0.00793905 77.3292 -0.107509 -176.805 -11.3108 177.424 -0.730974 -16.1072 -0.378423 -0.000338564 17.5211 2.16554 -7.21421 -58.923 -13.2961 0.0606114 6.51673 -0.391093 6.62213 -13.7624 20.2984 -125.465 -62.9636 -126.897 6.36797 -21.0974 -144.369 -74.243 38.7319 98.9204 -4.55765 2.59533e-12 2.98797e-11 -20.2819 50.4466 110.978 -1.04499e-08 -90 -1.04499e-08 165 10 -180 3.38179e-10 3.06064e-09 6.76296e-10 -0.0545166 -23.1662 -22.0222 -52.0474 -35.4393 -89.342 -1.76363 -1.61572e-12 1.19509e-11 -19.9487 -50.1602 -91.0771 -4.17997e-08 90 4.17997e-08 165 10 -180 -3.22934e-10 2.76098e-09 4.94883e-10 -13.6742 24.3141 120.064 58.8111 -0.0112552 8.93202e-10 -78.145 -0.680308 -2.81424 -19.7601 8.26623e-11 1.85172e-11 13.9374 30.1411 62.3101 46.1797 -0.0375577 3.42928e-08 -69.0823 -0.819868 23.0003 -22.2957 -4.54589e-10 -1.16448e-11 
-0.0101002 77.3278 -0.115014 -176.809 -11.2935 177.43 -0.732581 -16.1237 -0.425397 -0.00165643 17.1713 1.98666 -6.60531 -58.4631 -12.5758 0.0479657 6.40584 -0.239453 5.94609 -12.2594 18.5834 -135.383 -62.0567 -136.512 6.17156 -21.1528 -144.986 -74.3625 38.3369 99.0552 -4.47738 2.12143e-12 2.61855e-11 -20.3121 50.4851 110.957 1.2316e-08 -90 1.2316e-08 165 10 -180 2.39922e-10 2.93412e-09 5.86762e-10 -0.142019 -23.1382 -22.0236 -52.1362 -35.2002 -89.5567 -1.64913 -7.12444e-13 7.44727e-12 -19.903 -50.2507 -91.118 4.77711e-08 90 -4.77711e-08 165 10 -180 -2.39621e-10 1.50685e-09 2.14994e-10 -13.6954 24.3262 120.071 58.8019 -0.0112833 -1.62812e-09 -78.1375 -0.690514 -2.82708 -19.7631 1.04534e-10 2.25597e-11 13.927 30.1652 62.3061 46.1657 -0.0376133 2.62574e-08 -69.0754 -0.835362 23.0015 -22.2933 -3.11542e-10 -1.20392e-11 
-0.0201909 77.3301 -0.127812 -176.81 -11.2825 177.438 -0.734506 -16.1355 -0.457095 -0.00283853 16.9239 1.86505 -6.19831 -58.1352 -12.0953 0.0402818 6.32915 -0.138565 5.48537 -11.1117 17.3303 -142.376 -60.921 -143.277 6.03639 -21.1927 -145.412 -74.4425 38.058 99.1508 -4.41368 1.74612e-12 2.25963e-11 -20.3331 50.5069 110.93 -1.41821e-08 -90 -1.41821e-08 165 10 -180 1.96094e-10 2.75974e-09 5.16116e-10 -0.197735 -23.1213 -22.0157 -52.206 -35.0356 -89.7129 -1.57207 -2.44903e-13 5.36242e-12 -19.876 -50.3083 -91.1435 -2.98569e-08 90 2.98569e-08 165 10 -180 -1.86212e-10 8.07472e-10 6.34664e-11 -13.7135 24.3296 120.076 58.7934 -0.0113259 2.2741e-13 -78.1293 -0.703712 -2.83881 -19.7622 1.37548e-10 3.5126e-11 13.9175 30.1835 62.3052 46.1494 -0.0376367 8.31019e-13 -69.0645 -0.847338 22.9945 -22.2965 -1.95515e-10 -1.55784e-11 
-0.0271362 77.3273 -0.140707 -176.806 -11.2804 177.448 -0.737373 -16.1409 -0.468172 -0.00254172 16.8194 1.82288 -6.05236 -57.9951 -11.9291 0.0394299 6.30019 -0.109093 5.2741 -10.4705 16.6868 -146.099 -60.1856 -146.874 5.9868 -21.2131 -145.572 -74.4637 37.9389 99.1904 -4.37011 1.40899e-12 1.88034e-11 -20.3454 50.5057 110.892 -2.16463e-08 -90 -2.16463e-08 165 10 -180 2.43672e-10 2.46423e-09 4.66886e-10 -0.210468 -23.1206 -21.9959 -52.252 -34.9773 -89.7893 -1.54954 -4.35736e-13 7.11808e-12 -19.8754 -50.3159 -91.1459 1.19428e-08 90 -1.19428e-08 165 10 -180 -1.72167e-10 9.66882e-10 1.16202e-10 -13.7269 24.3204 120.077 58.7864 -0.0113908 1.50716e-09 -78.1202 -0.721613 -2.84889 -19.7553 1.99502e-10 6.51123e-11 13.9091 30.1934 62.3079 46.1302 -0.0376048 -3.77503e-08 -69.0478 -0.853118 22.9741 -22.3109 -1.12535e-10 -2.60495e-11 
-0.032495 77.3268 -0.15428 -176.8 -11.2847 177.462 -0.740885 -16.1416 -0.464484 -0.000915279 16.8171 1.83741 -6.08838 -57.9899 -11.9832 0.0433805 6.30534 -0.130599 5.22771 -10.1954 16.4711 -147.773 -59.9037 -148.496 5.99856 -21.2202 -145.544 -74.4437 37.9342 99.1906 -4.34107 1.13546e-12 1.48659e-11 -20.3513 50.4881 110.848 -3.47087e-08 -90 -3.47087e-08 165 10 -180 3.55812e-10 2.08476e-09 4.33193e-10 -0.192425 -23.1314 -21.9675 -52.2813 -34.9947 -89.809 -1.56584 -1.08775e-12 1.16027e-11 -19.8936 -50.2881 -91.1318 1.79142e-08 90 -1.79142e-08 165 10 -180 -1.86342e-10 1.73578e-09 3.13679e-10 -13.737 24.3024 120.076 58.7805 -0.0114717 -2.32926e-10 -78.1104 -0.742848 -2.8578 -19.744 2.81498e-10 1.07255e-10 13.9016 30.1973 62.3134 46.1089 -0.0375339 -5.9183e-08 -69.027 -0.85454 22.9442 -22.3331 -5.33781e-11 -4.13782e-11 
-0.0406645 77.329 -0.16638 -176.793 -11.2914 177.475 -0.743835 -16.1404 -0.453654 0.00110951 16.8562 1.87523 -6.19971 -58.0406 -12.1277 0.0489319 6.32444 -0.171817 5.24836 -10.083 16.439 -148.57 -59.8477 -149.271 6.0363 -21.2216 -145.435 -74.4158 37.98 99.18 -4.32273 9.50986e-13 1.14325e-11 -20.3481 50.4629 110.804 9.3303e-09 -90 9.3303e-09 165 10 -180 4.69453e-10 1.75834e-09 4.13757e-10 -0.159663 -23.146 -21.9341 -52.3018 -35.04 -89.8045 -1.59435 -1.81292e-12 1.64673e-11 -19.9189 -50.2523 -91.1137 -2.98569e-08 90 2.98569e-08 165 10 -180 -2.15826e-10 2.61708e-09 5.29748e-10 -13.7461 24.2812 120.074 58.774 -0.0115556 -1.45984e-09 -78.1 -0.764595 -2.86638 -19.732 3.50183e-10 1.45482e-10 13.8943 30.1993 62.3205 46.0861 -0.0374634 -4.32187e-08 -69.005 -0.856266 22.9139 -22.353 -1.13947e-11 -5.45076e-11 
-0.0509743 77.3313 -0.180486 -176.787 -11.2968 177.486 -0.745016 -16.14 -0.443304 0.002591 16.8764 1.90298 -6.27991 -58.0678 -12.2333 0.0528723 6.33737 -0.20148 5.24363 -9.92875 16.3492 -149.528 -59.7165 -150.196 6.06464 -21.225 -145.355 -74.4136 38.0124 99.1873 -4.31127 9.54166e-13 9.12183e-12 -20.333 50.4389 110.769 1.45553e-08 -90 1.45553e-08 165 10 -180 5.21525e-10 1.62196e-09 4.07298e-10 -0.12825 -23.1568 -21.8993 -52.3213 -35.0651 -89.8079 -1.60844 -2.19776e-12 1.93855e-11 -19.9393 -50.2362 -91.1036 1.79142e-08 90 -1.79142e-08 165 10 -180 -2.47679e-10 3.11366e-09 6.38283e-10 -13.7565 24.2627 120.074 58.7654 -0.0116297 -1.97592e-12 -78.0887 -0.78403 -2.87546 -19.7232 3.722e-10 1.63671e-10 13.8868 30.2038 62.3282 46.0624 -0.0374326 -2.69453e-13 -68.9847 -0.862948 22.8924 -22.3604 2.00807e-11 -5.84928e-11 
